<svg width="339" height="118" viewBox="0 0 339 118" fill="none" xmlns="http://www.w3.org/2000/svg">
<rect width="339" height="118" rx="14" fill="#F5F5F5"/>
<rect x="24" y="24" width="291" height="69.9302" fill="#030303"/>
<path fill-rule="evenodd" clip-rule="evenodd" d="M71.3708 72.4999C78.846 72.4999 84.9057 66.4402 84.9057 58.965C84.9057 51.49 78.846 45.4302 71.3708 45.4302C63.8957 45.4302 57.8359 51.49 57.8359 58.965C57.8359 66.4402 63.8957 72.4999 71.3708 72.4999ZM75.5933 51.7353C75.7988 51.0052 75.0903 50.5735 74.4433 51.0345L65.4108 57.4692C64.7091 57.9691 64.8195 58.965 65.5766 58.965H67.9551V58.9466H72.5907L68.8136 60.2794L67.1484 66.1948C66.9429 66.9249 67.6513 67.3566 68.2984 66.8956L77.3309 60.461C78.0326 59.9611 77.9221 58.965 77.1651 58.965H73.5582L75.5933 51.7353Z" fill="#A8FF35"/>
<path d="M102.374 51.5314V65.9651H100.461V51.5314H102.374ZM108.421 58.0246V59.5909H101.957V58.0246H108.421ZM109.402 51.5314V53.0977H101.957V51.5314H109.402ZM113.397 55.239V65.9651H111.553V55.239H113.397ZM111.415 52.3939C111.415 52.0965 111.504 51.8453 111.682 51.6404C111.867 51.4356 112.138 51.3331 112.495 51.3331C112.846 51.3331 113.113 51.4356 113.298 51.6404C113.49 51.8453 113.586 52.0965 113.586 52.3939C113.586 52.678 113.49 52.9226 113.298 53.1274C113.113 53.3257 112.846 53.4248 112.495 53.4248C112.138 53.4248 111.867 53.3257 111.682 53.1274C111.504 52.9226 111.415 52.678 111.415 52.3939ZM118.176 57.5289V65.9651H116.342V55.239H118.076L118.176 57.5289ZM117.739 60.1956L116.976 60.1658C116.983 59.4323 117.092 58.7549 117.303 58.1336C117.515 57.5058 117.812 56.9606 118.195 56.4979C118.579 56.0353 119.035 55.6784 119.563 55.4273C120.099 55.1696 120.69 55.0407 121.338 55.0407C121.867 55.0407 122.342 55.1134 122.765 55.2588C123.188 55.3976 123.549 55.6223 123.846 55.9329C124.15 56.2435 124.381 56.6466 124.54 57.1423C124.698 57.6314 124.778 58.2295 124.778 58.9366V65.9651H122.934V58.9168C122.934 58.355 122.851 57.9056 122.686 57.5686C122.521 57.2249 122.28 56.9771 121.962 56.8251C121.645 56.6665 121.255 56.5872 120.793 56.5872C120.337 56.5872 119.92 56.683 119.544 56.8746C119.173 57.0663 118.853 57.3307 118.582 57.6677C118.318 58.0048 118.109 58.3914 117.957 58.8276C117.812 59.2571 117.739 59.7131 117.739 60.1956ZM134.324 63.8833V50.7383H136.168V65.9651H134.483L134.324 63.8833ZM127.107 60.721V60.5128C127.107 59.6933 127.207 58.9498 127.405 58.2823C127.61 57.6082 127.897 57.03 128.267 56.5475C128.644 56.0651 129.09 55.695 129.606 55.4372C130.128 55.1729 130.709 55.0407 131.35 55.0407C132.024 55.0407 132.613 55.1597 133.115 55.3976C133.624 55.6289 134.053 55.9692 134.404 56.4186C134.76 56.8614 135.041 57.3967 135.246 58.0246C135.451 58.6524 135.593 59.3629 135.672 60.1559V61.0679C135.6 61.8544 135.458 62.5615 135.246 63.1894C135.041 63.8172 134.76 64.3525 134.404 64.7953C134.053 65.2381 133.624 65.5785 133.115 65.8164C132.606 66.0477 132.011 66.1634 131.33 66.1634C130.703 66.1634 130.128 66.0279 129.606 65.7569C129.09 65.4859 128.644 65.1059 128.267 64.6169C127.897 64.1278 127.61 63.5529 127.405 62.892C127.207 62.2245 127.107 61.5008 127.107 60.721ZM128.951 60.5128V60.721C128.951 61.2563 129.004 61.7586 129.11 62.2278C129.222 62.697 129.394 63.1101 129.625 63.467C129.857 63.8238 130.151 64.1047 130.508 64.3096C130.864 64.5078 131.291 64.607 131.786 64.607C132.394 64.607 132.893 64.4781 133.283 64.2204C133.68 63.9626 133.997 63.6223 134.235 63.1993C134.473 62.7763 134.658 62.317 134.79 61.8214V59.4323C134.711 59.0688 134.595 58.7185 134.443 58.3815C134.298 58.0378 134.106 57.7338 133.868 57.4694C133.637 57.1985 133.349 56.9837 133.006 56.8251C132.669 56.6665 132.269 56.5872 131.806 56.5872C131.304 56.5872 130.871 56.6929 130.508 56.9044C130.151 57.1093 129.857 57.3934 129.625 57.7569C129.394 58.1138 129.222 58.5302 129.11 59.006C129.004 59.4752 128.951 59.9775 128.951 60.5128ZM143.514 55.239V56.6466H137.715V55.239H143.514ZM139.677 52.6318H141.511V63.3083C141.511 63.6718 141.567 63.9461 141.68 64.1311C141.792 64.3162 141.938 64.4384 142.116 64.4979C142.294 64.5574 142.486 64.5871 142.691 64.5871C142.843 64.5871 143.002 64.5739 143.167 64.5475C143.339 64.5144 143.468 64.488 143.553 64.4682L143.563 65.9651C143.418 66.0113 143.226 66.0543 142.988 66.094C142.757 66.1402 142.476 66.1634 142.146 66.1634C141.696 66.1634 141.283 66.0741 140.907 65.8957C140.53 65.7173 140.229 65.4199 140.005 65.0035C139.786 64.5805 139.677 64.0122 139.677 63.2984V52.6318ZM147.499 56.9242V65.9651H145.665V55.239H147.449L147.499 56.9242ZM150.85 55.1795L150.84 56.8846C150.688 56.8515 150.542 56.8317 150.404 56.8251C150.271 56.8119 150.119 56.8053 149.947 56.8053C149.525 56.8053 149.151 56.8713 148.827 57.0035C148.503 57.1357 148.229 57.3207 148.004 57.5587C147.78 57.7966 147.601 58.0808 147.469 58.4112C147.344 58.735 147.261 59.0919 147.221 59.4818L146.706 59.7792C146.706 59.1316 146.769 58.5235 146.894 57.9552C147.026 57.3868 147.228 56.8846 147.499 56.4484C147.77 56.0056 148.114 55.6619 148.53 55.4174C148.953 55.1663 149.455 55.0407 150.037 55.0407C150.169 55.0407 150.321 55.0572 150.493 55.0903C150.665 55.1167 150.784 55.1464 150.85 55.1795ZM156.798 66.1634C156.051 66.1634 155.373 66.0378 154.765 65.7866C154.164 65.5289 153.645 65.1687 153.209 64.7061C152.779 64.2435 152.449 63.695 152.218 63.0605C151.986 62.4261 151.871 61.7321 151.871 60.9787V60.5624C151.871 59.69 152 58.9135 152.257 58.2328C152.515 57.5454 152.865 56.9639 153.308 56.488C153.751 56.0122 154.253 55.652 154.815 55.4075C155.377 55.163 155.958 55.0407 156.56 55.0407C157.326 55.0407 157.987 55.1729 158.542 55.4372C159.104 55.7016 159.563 56.0717 159.92 56.5475C160.277 57.0167 160.541 57.5719 160.713 58.2129C160.885 58.8474 160.971 59.5413 160.971 60.2947V61.1175H152.961V59.6206H159.137V59.4818C159.111 59.006 159.012 58.5434 158.84 58.094C158.674 57.6446 158.41 57.2745 158.047 56.9837C157.683 56.6929 157.187 56.5475 156.56 56.5475C156.143 56.5475 155.76 56.6367 155.41 56.8152C155.059 56.987 154.759 57.2447 154.508 57.5884C154.256 57.9321 154.061 58.3517 153.923 58.8474C153.784 59.343 153.715 59.9147 153.715 60.5624V60.9787C153.715 61.4876 153.784 61.9667 153.923 62.4161C154.068 62.8589 154.276 63.2489 154.547 63.5859C154.825 63.923 155.159 64.1873 155.548 64.379C155.945 64.5706 156.394 64.6665 156.897 64.6665C157.544 64.6665 158.093 64.5343 158.542 64.2699C158.992 64.0056 159.385 63.652 159.722 63.2092L160.832 64.0915C160.601 64.4418 160.307 64.7755 159.95 65.0927C159.593 65.4099 159.154 65.6677 158.631 65.866C158.116 66.0642 157.505 66.1634 156.798 66.1634ZM164.946 57.5289V65.9651H163.112V55.239H164.847L164.946 57.5289ZM164.51 60.1956L163.747 60.1658C163.753 59.4323 163.862 58.7549 164.074 58.1336C164.285 57.5058 164.583 56.9606 164.966 56.4979C165.349 56.0353 165.805 55.6784 166.334 55.4273C166.869 55.1696 167.461 55.0407 168.109 55.0407C168.637 55.0407 169.113 55.1134 169.536 55.2588C169.959 55.3976 170.319 55.6223 170.617 55.9329C170.921 56.2435 171.152 56.6466 171.311 57.1423C171.469 57.6314 171.548 58.2295 171.548 58.9366V65.9651H169.705V58.9168C169.705 58.355 169.622 57.9056 169.457 57.5686C169.292 57.2249 169.05 56.9771 168.733 56.8251C168.416 56.6665 168.026 56.5872 167.563 56.5872C167.107 56.5872 166.691 56.683 166.314 56.8746C165.944 57.0663 165.624 57.3307 165.353 57.6677C165.088 58.0048 164.88 58.3914 164.728 58.8276C164.583 59.2571 164.51 59.7131 164.51 60.1956ZM181.095 63.8833V50.7383H182.939V65.9651H181.254L181.095 63.8833ZM173.878 60.721V60.5128C173.878 59.6933 173.977 58.9498 174.175 58.2823C174.38 57.6082 174.668 57.03 175.038 56.5475C175.415 56.0651 175.861 55.695 176.376 55.4372C176.898 55.1729 177.48 55.0407 178.121 55.0407C178.795 55.0407 179.383 55.1597 179.885 55.3976C180.394 55.6289 180.824 55.9692 181.174 56.4186C181.531 56.8614 181.812 57.3967 182.017 58.0246C182.222 58.6524 182.364 59.3629 182.443 60.1559V61.0679C182.37 61.8544 182.228 62.5615 182.017 63.1894C181.812 63.8172 181.531 64.3525 181.174 64.7953C180.824 65.2381 180.394 65.5785 179.885 65.8164C179.377 66.0477 178.782 66.1634 178.101 66.1634C177.473 66.1634 176.898 66.0279 176.376 65.7569C175.861 65.4859 175.415 65.1059 175.038 64.6169C174.668 64.1278 174.38 63.5529 174.175 62.892C173.977 62.2245 173.878 61.5008 173.878 60.721ZM175.722 60.5128V60.721C175.722 61.2563 175.775 61.7586 175.881 62.2278C175.993 62.697 176.165 63.1101 176.396 63.467C176.627 63.8238 176.921 64.1047 177.278 64.3096C177.635 64.5078 178.061 64.607 178.557 64.607C179.165 64.607 179.664 64.4781 180.054 64.2204C180.451 63.9626 180.768 63.6223 181.006 63.1993C181.244 62.7763 181.429 62.317 181.561 61.8214V59.4323C181.482 59.0688 181.366 58.7185 181.214 58.3815C181.068 58.0378 180.877 57.7338 180.639 57.4694C180.408 57.1985 180.12 56.9837 179.776 56.8251C179.439 56.6665 179.04 56.5872 178.577 56.5872C178.075 56.5872 177.642 56.6929 177.278 56.9044C176.921 57.1093 176.627 57.3934 176.396 57.7569C176.165 58.1138 175.993 58.5302 175.881 59.006C175.775 59.4752 175.722 59.9775 175.722 60.5128ZM194.646 59.0754V60.5822H189.809V59.0754H194.646ZM210.924 64.4087V65.9651H203.281V64.4087H210.924ZM203.667 51.5314V65.9651H201.754V51.5314H203.667ZM209.913 57.7371V59.2935H203.281V57.7371H209.913ZM210.825 51.5314V53.0977H203.281V51.5314H210.825ZM215.008 50.7383V65.9651H213.164V50.7383H215.008ZM217.467 60.721V60.493C217.467 59.7197 217.579 59.0027 217.804 58.3418C218.028 57.6743 218.352 57.096 218.775 56.607C219.198 56.1113 219.71 55.728 220.312 55.457C220.913 55.1795 221.587 55.0407 222.334 55.0407C223.087 55.0407 223.765 55.1795 224.366 55.457C224.974 55.728 225.49 56.1113 225.913 56.607C226.342 57.096 226.669 57.6743 226.894 58.3418C227.119 59.0027 227.231 59.7197 227.231 60.493V60.721C227.231 61.4942 227.119 62.2113 226.894 62.8722C226.669 63.533 226.342 64.1113 225.913 64.607C225.49 65.096 224.978 65.4793 224.376 65.7569C223.781 66.0279 223.107 66.1634 222.354 66.1634C221.6 66.1634 220.923 66.0279 220.322 65.7569C219.72 65.4793 219.205 65.096 218.775 64.607C218.352 64.1113 218.028 63.533 217.804 62.8722C217.579 62.2113 217.467 61.4942 217.467 60.721ZM219.301 60.493V60.721C219.301 61.2563 219.363 61.7619 219.489 62.2377C219.614 62.7069 219.803 63.1233 220.054 63.4868C220.312 63.8503 220.632 64.1377 221.016 64.3492C221.399 64.5541 221.845 64.6565 222.354 64.6565C222.856 64.6565 223.296 64.5541 223.672 64.3492C224.056 64.1377 224.373 63.8503 224.624 63.4868C224.875 63.1233 225.063 62.7069 225.189 62.2377C225.321 61.7619 225.387 61.2563 225.387 60.721V60.493C225.387 59.9643 225.321 59.4653 225.189 58.9961C225.063 58.5202 224.872 58.1006 224.614 57.7371C224.363 57.367 224.046 57.0762 223.662 56.8647C223.286 56.6532 222.843 56.5475 222.334 56.5475C221.832 56.5475 221.389 56.6532 221.006 56.8647C220.629 57.0762 220.312 57.367 220.054 57.7371C219.803 58.1006 219.614 58.5202 219.489 58.9961C219.363 59.4653 219.301 59.9643 219.301 60.493ZM231.365 57.5289V65.9651H229.531V55.239H231.266L231.365 57.5289ZM230.929 60.1956L230.165 60.1658C230.172 59.4323 230.281 58.7549 230.493 58.1336C230.704 57.5058 231.001 56.9606 231.385 56.4979C231.768 56.0353 232.224 55.6784 232.753 55.4273C233.288 55.1696 233.88 55.0407 234.527 55.0407C235.056 55.0407 235.532 55.1134 235.955 55.2588C236.378 55.3976 236.738 55.6223 237.035 55.9329C237.339 56.2435 237.571 56.6466 237.729 57.1423C237.888 57.6314 237.967 58.2295 237.967 58.9366V65.9651H236.123V58.9168C236.123 58.355 236.041 57.9056 235.875 57.5686C235.71 57.2249 235.469 56.9771 235.152 56.8251C234.835 56.6665 234.445 56.5872 233.982 56.5872C233.526 56.5872 233.11 56.683 232.733 56.8746C232.363 57.0663 232.042 57.3307 231.771 57.6677C231.507 58.0048 231.299 58.3914 231.147 58.8276C231.001 59.2571 230.929 59.7131 230.929 60.1956ZM246.671 51.5314H248.525L253.253 63.2984L257.972 51.5314H259.836L253.967 65.9651H252.52L246.671 51.5314ZM246.066 51.5314H247.702L247.97 60.3344V65.9651H246.066V51.5314ZM258.795 51.5314H260.431V65.9651H258.527V60.3344L258.795 51.5314ZM270.076 63.4868V55.239H271.92V65.9651H270.165L270.076 63.4868ZM270.423 61.2266L271.186 61.2067C271.186 61.9205 271.11 62.5814 270.958 63.1894C270.813 63.7908 270.575 64.3129 270.245 64.7557C269.914 65.1985 269.481 65.5454 268.946 65.7966C268.411 66.0411 267.76 66.1634 266.993 66.1634C266.471 66.1634 265.992 66.0874 265.556 65.9353C265.126 65.7833 264.756 65.5487 264.445 65.2315C264.135 64.9143 263.894 64.5012 263.722 63.9924C263.557 63.4835 263.474 62.8722 263.474 62.1584V55.239H265.308V62.1782C265.308 62.6607 265.361 63.0605 265.467 63.3777C265.579 63.6883 265.728 63.9362 265.913 64.1212C266.104 64.2997 266.316 64.4252 266.547 64.4979C266.785 64.5706 267.03 64.607 267.281 64.607C268.06 64.607 268.678 64.4583 269.134 64.1609C269.59 63.8569 269.918 63.4504 270.116 62.9415C270.321 62.4261 270.423 61.8544 270.423 61.2266ZM280.961 63.12C280.961 62.8556 280.901 62.6111 280.782 62.3864C280.67 62.1551 280.436 61.9469 280.079 61.7619C279.728 61.5702 279.2 61.405 278.493 61.2662C277.898 61.1406 277.359 60.9919 276.877 60.8201C276.401 60.6483 275.994 60.4401 275.657 60.1956C275.327 59.9511 275.072 59.6636 274.894 59.3331C274.716 59.0027 274.626 58.6161 274.626 58.1733C274.626 57.7503 274.719 57.3505 274.904 56.9738C275.096 56.5971 275.363 56.2633 275.707 55.9725C276.057 55.6817 276.477 55.4537 276.966 55.2885C277.455 55.1233 278 55.0407 278.602 55.0407C279.461 55.0407 280.194 55.1927 280.802 55.4967C281.41 55.8007 281.876 56.2072 282.2 56.716C282.524 57.2183 282.686 57.7767 282.686 58.3914H280.852C280.852 58.094 280.763 57.8065 280.584 57.5289C280.412 57.2447 280.158 57.0101 279.821 56.8251C279.49 56.64 279.084 56.5475 278.602 56.5475C278.093 56.5475 277.68 56.6268 277.362 56.7854C277.052 56.9374 276.824 57.1324 276.678 57.3703C276.54 57.6082 276.47 57.8594 276.47 58.1237C276.47 58.322 276.503 58.5004 276.569 58.659C276.642 58.811 276.768 58.9531 276.946 59.0853C277.124 59.2109 277.376 59.3298 277.699 59.4422C278.023 59.5545 278.436 59.6669 278.939 59.7792C279.818 59.9775 280.541 60.2154 281.11 60.493C281.678 60.7705 282.101 61.1109 282.379 61.514C282.656 61.9172 282.795 62.4062 282.795 62.9812C282.795 63.4504 282.696 63.88 282.497 64.2699C282.306 64.6598 282.025 64.9969 281.655 65.2811C281.291 65.5586 280.855 65.7767 280.346 65.9353C279.844 66.0874 279.279 66.1634 278.651 66.1634C277.706 66.1634 276.906 65.9948 276.252 65.6578C275.598 65.3207 275.102 64.8845 274.765 64.3492C274.428 63.8139 274.26 63.2489 274.26 62.6541H276.103C276.13 63.1563 276.275 63.5562 276.54 63.8536C276.804 64.1444 277.128 64.3525 277.511 64.4781C277.894 64.5971 278.274 64.6565 278.651 64.6565C279.153 64.6565 279.573 64.5905 279.91 64.4583C280.254 64.3261 280.515 64.1444 280.693 63.913C280.872 63.6817 280.961 63.4174 280.961 63.12ZM287.048 50.7383V65.9651H285.204V50.7383H287.048ZM293.6 55.239L288.921 60.2451L286.304 62.9614L286.155 61.0085L288.029 58.7681L291.36 55.239H293.6ZM291.925 65.9651L288.098 60.8499L289.05 59.2142L294.086 65.9651H291.925Z" fill="white"/>
<rect x="242.812" y="24" width="72.1861" height="69.9302" fill="url(#paint0_linear_23_933)"/>
<rect width="2.25189" height="16.8892" rx="0.563953" transform="matrix(0.707101 -0.707112 0.707101 0.707112 283.418 53.79)" fill="white"/>
<rect width="2.25189" height="16.8892" rx="0.563953" transform="matrix(-0.707101 -0.707112 -0.707101 0.707112 296.953 53.79)" fill="white"/>
<defs>
<linearGradient id="paint0_linear_23_933" x1="314.999" y1="58.9651" x2="242.812" y2="58.9651" gradientUnits="userSpaceOnUse">
<stop offset="0.536458" stop-color="#030303"/>
<stop offset="1" stop-color="#030303" stop-opacity="0.6"/>
</linearGradient>
</defs>
</svg>
